<?xml version="1.0" encoding="UTF-8"?>
<svg width="200px" height="30px" viewBox="0 0 200 30" xmlns="http://www.w3.org/2000/svg">
   <g id="svgGroup" stroke-linecap="round" fill-rule="evenodd" font-size="9pt" fill="#33AE9A">
      <path d="M 9.622 0.342 L 15.227 0.342 L 22.405 19.414 L 29.565 0.342 L 35.154 0.342 L 35.154 25.225 L 30.847 25.225 L 30.847 17.022 L 31.274 6.05 L 23.926 25.225 L 20.833 25.225 L 13.501 6.067 L 13.928 17.022 L 13.928 25.225 L 9.622 25.225 L 9.622 0.342 Z M 96.746 17.124 L 101.052 17.124 A 11.101 11.101 0 0 1 100.43 19.955 A 8.173 8.173 0 0 1 98.113 23.337 A 8.758 8.758 0 0 1 94.36 25.226 Q 93.044 25.546 91.501 25.565 A 16.006 16.006 0 0 1 91.294 25.567 A 10.634 10.634 0 0 1 88.335 25.169 A 9.017 9.017 0 0 1 86.056 24.157 Q 83.792 22.747 82.561 20.149 A 12.974 12.974 0 0 1 81.516 16.769 A 17.224 17.224 0 0 1 81.279 14.117 L 81.279 11.792 A 16.864 16.864 0 0 1 81.572 8.578 A 12.879 12.879 0 0 1 82.527 5.589 A 9.917 9.917 0 0 1 84.421 2.806 A 9.017 9.017 0 0 1 86.107 1.453 A 9.628 9.628 0 0 1 90.286 0.06 A 12.024 12.024 0 0 1 91.499 0 A 12.315 12.315 0 0 1 94.362 0.315 A 8.539 8.539 0 0 1 98.13 2.239 A 8.414 8.414 0 0 1 100.539 6.026 A 12.247 12.247 0 0 1 101.052 8.562 L 96.746 8.562 Q 96.562 6.964 96.043 5.896 A 4.115 4.115 0 0 0 95.182 4.692 Q 94.132 3.699 92.264 3.536 A 8.809 8.809 0 0 0 91.499 3.504 A 6.161 6.161 0 0 0 89.641 3.77 A 4.798 4.798 0 0 0 87.167 5.563 A 6.864 6.864 0 0 0 86.196 7.509 Q 85.901 8.412 85.757 9.512 A 17.276 17.276 0 0 0 85.62 11.604 L 85.62 13.809 Q 85.62 16.352 86.194 18.135 A 7.08 7.08 0 0 0 87.064 19.961 A 4.641 4.641 0 0 0 90.446 22.027 A 6.561 6.561 0 0 0 91.294 22.08 Q 92.917 22.08 94.026 21.615 A 3.881 3.881 0 0 0 95.122 20.935 A 3.999 3.999 0 0 0 96.008 19.754 Q 96.292 19.198 96.483 18.491 A 10.319 10.319 0 0 0 96.746 17.124 Z M 74.597 25.225 L 68.411 6.563 L 62.241 25.225 L 57.61 25.225 L 66.326 0.342 L 70.513 0.342 L 79.246 25.225 L 74.597 25.225 Z M 122.397 0.342 L 122.397 3.828 L 114.639 3.828 L 114.639 25.225 L 110.349 25.225 L 110.349 3.828 L 102.659 3.828 L 102.659 0.342 L 122.397 0.342 Z M 49.731 15.979 L 44.587 15.979 L 44.587 25.225 L 40.264 25.225 L 40.264 0.342 L 49.783 0.342 Q 53.365 0.342 55.679 1.944 A 7.734 7.734 0 0 1 56.405 2.513 A 7.153 7.153 0 0 1 58.836 7.597 A 9.859 9.859 0 0 1 58.857 8.255 A 8.928 8.928 0 0 1 58.547 10.674 A 6.488 6.488 0 0 1 56.456 13.946 A 7.962 7.962 0 0 1 53.575 15.471 Q 52.419 15.82 51.036 15.93 A 16.572 16.572 0 0 1 49.731 15.979 Z M 4.307 0.342 L 4.307 25.225 L 0 25.225 L 0 0.342 L 4.307 0.342 Z M 44.587 3.828 L 44.587 12.51 L 49.783 12.51 Q 51.359 12.51 52.424 12.004 A 3.675 3.675 0 0 0 53.303 11.425 A 3.502 3.502 0 0 0 54.367 9.612 Q 54.517 9.01 54.517 8.289 A 5.361 5.361 0 0 0 54.344 6.891 A 3.935 3.935 0 0 0 53.286 5.068 A 4.164 4.164 0 0 0 51.388 4.019 Q 50.71 3.841 49.902 3.828 L 44.587 3.828 Z" vector-effect="non-scaling-stroke"/>
   </g>
</svg>